<?xml version="1.0" encoding="UTF-8"?>
<svg width="29" height="29" viewBox="0 0 29 29" fill="none" xmlns="http://www.w3.org/2000/svg">
<path d="M3.6 10.8C3.6 10.1635 3.85286 9.55303 4.30294 9.10294C4.75303 8.65285 5.36348 8.4 6 8.4H7.116C7.51102 8.40006 7.89995 8.30261 8.24828 8.1163C8.59661 7.93 8.89356 7.6606 9.1128 7.332L10.0872 5.868C10.3064 5.5394 10.6034 5.26999 10.9517 5.08369C11.3 4.89738 11.689 4.79994 12.084 4.8H16.716C17.111 4.79994 17.5 4.89738 17.8483 5.08369C18.1966 5.26999 18.4936 5.5394 18.7128 5.868L19.6872 7.332C19.9064 7.6606 20.2034 7.93 20.5517 8.1163C20.9 8.30261 21.289 8.40006 21.684 8.4H22.8C23.4365 8.4 24.047 8.65285 24.4971 9.10294C24.9471 9.55303 25.2 10.1635 25.2 10.8V21.6C25.2 22.2365 24.9471 22.847 24.4971 23.2971C24.047 23.7471 23.4365 24 22.8 24H6C5.36348 24 4.75303 23.7471 4.30294 23.2971C3.85286 22.847 3.6 22.2365 3.6 21.6V10.8Z" stroke="white" stroke-width="2.4" stroke-linecap="round" stroke-linejoin="round"/>
<path d="M18 15.6C18 16.5548 17.6207 17.4705 16.9456 18.1456C16.2705 18.8207 15.3548 19.2 14.4 19.2C13.4452 19.2 12.5295 18.8207 11.8544 18.1456C11.1793 17.4705 10.8 16.5548 10.8 15.6C10.8 14.6452 11.1793 13.7295 11.8544 13.0544C12.5295 12.3793 13.4452 12 14.4 12C15.3548 12 16.2705 12.3793 16.9456 13.0544C17.6207 13.7295 18 14.6452 18 15.6Z" stroke="white" stroke-width="2.4" stroke-linecap="round" stroke-linejoin="round"/>
</svg> 