<svg xmlns="http://www.w3.org/2000/svg" width="23" height="23" viewBox="0 0 23 23" fill="none">
  <path d="M3.04443 4.06806C3.04443 3.82665 3.14034 3.59512 3.31104 3.42441C3.48175 3.25371 3.71327 3.15781 3.95469 3.15781H18.5188C18.7602 3.15781 18.9917 3.25371 19.1624 3.42441C19.3331 3.59512 19.429 3.82665 19.429 4.06806V6.42199C19.429 6.66338 19.3331 6.89487 19.1623 7.06554L13.324 12.9039C13.1532 13.0746 13.0573 13.3061 13.0573 13.5475V15.9014L9.41623 19.5424V13.5475C9.41618 13.3061 9.32024 13.0746 9.14952 12.9039L3.31114 7.06554C3.14042 6.89487 3.04449 6.66338 3.04443 6.42199V4.06806Z" stroke="#0DE26D" stroke-width="1.82051" stroke-linecap="round" stroke-linejoin="round"/>
</svg> 