<svg xmlns="http://www.w3.org/2000/svg" width="55" height="36" viewBox="0 0 55 36" fill="none">
  <path d="M54.4118 15.479H49.492V10.437H44.5722V15.479H39.6524V20.521H44.5722V25.563H49.492V20.521H54.4118M17.5134 15.479V21.5294H27.353C26.861 24.0504 24.4011 29.0925 17.5134 29.0925C11.6096 29.0925 6.93584 24.0504 6.93584 18C6.93584 11.9496 11.6096 6.90759 17.5134 6.90759C20.9572 6.90759 23.1711 8.42019 24.4011 9.6807L29.0749 5.14288C26.123 2.11767 22.1872 0.352966 17.5134 0.352966C7.9198 0.352966 0.294128 8.16809 0.294128 18C0.294128 27.832 7.9198 35.6471 17.5134 35.6471C27.353 35.6471 33.9947 28.5883 33.9947 18.5042C33.9947 17.2437 33.9947 16.4874 33.7487 15.479H17.5134Z" fill="#0DE26D"/>
</svg> 