<?xml version="1.0" encoding="UTF-8"?>
<svg width="29" height="29" viewBox="0 0 29 29" fill="none" xmlns="http://www.w3.org/2000/svg">
<path d="M4.32031 5.76C4.32031 5.37809 4.47203 5.01182 4.74208 4.74177C5.01213 4.47171 5.3784 4.32 5.76031 4.32H23.0403C23.4222 4.32 23.7885 4.47171 24.0585 4.74177C24.3286 5.01182 24.4803 5.37809 24.4803 5.76V8.64C24.4803 9.02191 24.3286 9.38818 24.0585 9.65824C23.7885 9.92829 23.4222 10.08 23.0403 10.08H5.76031C5.3784 10.08 5.01213 9.92829 4.74208 9.65824C4.47203 9.38818 4.32031 9.02191 4.32031 8.64V5.76ZM4.32031 14.4C4.32031 14.0181 4.47203 13.6518 4.74208 13.3818C5.01213 13.1117 5.3784 12.96 5.76031 12.96H14.4003C14.7822 12.96 15.1485 13.1117 15.4185 13.3818C15.6886 13.6518 15.8403 14.0181 15.8403 14.4V23.04C15.8403 23.4219 15.6886 23.7882 15.4185 24.0582C15.1485 24.3283 14.7822 24.48 14.4003 24.48H5.76031C5.3784 24.48 5.01213 24.3283 4.74208 24.0582C4.47203 23.7882 4.32031 23.4219 4.32031 23.04V14.4ZM20.1603 12.96C19.7784 12.96 19.4121 13.1117 19.1421 13.3818C18.872 13.6518 18.7203 14.0181 18.7203 14.4V23.04C18.7203 23.4219 18.872 23.7882 19.1421 24.0582C19.4121 24.3283 19.7784 24.48 20.1603 24.48H23.0403C23.4222 24.48 23.7885 24.3283 24.0585 24.0582C24.3286 23.7882 24.4803 23.4219 24.4803 23.04V14.4C24.4803 14.0181 24.3286 13.6518 24.0585 13.3818C23.7885 13.1117 23.4222 12.96 23.0403 12.96H20.1603Z" fill="#10B981"/>
</svg> 