<svg xmlns="http://www.w3.org/2000/svg" width="24" height="24" viewBox="0 0 24 24" fill="none" stroke="currentColor" stroke-width="2" stroke-linecap="round" stroke-linejoin="round">
  <!-- User head -->
  <circle cx="12" cy="8" r="4"></circle>
  <!-- User body -->
  <path d="M4 20c0-4 4-6 8-6s8 2 8 6"></path>
  <!-- Eco elements - small leaves -->
  <path d="M8 6c0-.5.5-1 1-1s1 .5 1 1-.5 1-1 1-1-.5-1-1z"></path>
  <path d="M8.5 6.5l.5-.5"></path>
  <path d="M14 6c0-.5.5-1 1-1s1 .5 1 1-.5 1-1 1-1-.5-1-1z"></path>
  <path d="M15.5 6.5l-.5-.5"></path>
  <!-- Heart symbol for caring -->
  <path d="M11 14.5c0-.3.2-.5.5-.5s.5.2.5.5c0 .5-.5 1-.5 1s-.5-.5-.5-1z"></path>
  <path d="M12.5 14.5c0-.3.2-.5.5-.5s.5.2.5.5c0 .5-.5 1-.5 1s-.5-.5-.5-1z"></path>
</svg>