<svg xmlns="http://www.w3.org/2000/svg" width="28" height="27" viewBox="0 0 28 27" fill="none">
  <path d="M15.1641 17.9548H14.0666V13.5651H12.9692M14.0666 9.17535H14.0776M23.9435 13.5651C23.9435 14.8621 23.6881 16.1465 23.1917 17.3448C22.6953 18.5432 21.9678 19.632 21.0507 20.5491C20.1335 21.4663 19.0447 22.1938 17.8464 22.6902C16.648 23.1865 15.3637 23.442 14.0666 23.442C12.7696 23.442 11.4852 23.1865 10.2869 22.6902C9.08856 22.1938 7.99974 21.4663 7.08258 20.5491C6.16542 19.632 5.43789 18.5432 4.94153 17.3448C4.44517 16.1465 4.1897 14.8621 4.1897 13.5651C4.1897 10.9456 5.2303 8.43334 7.08258 6.58106C8.93486 4.72877 11.4471 3.68817 14.0666 3.68817C16.6861 3.68817 19.1984 4.72877 21.0507 6.58106C22.9029 8.43334 23.9435 10.9456 23.9435 13.5651Z" stroke="white" stroke-width="2.19487" stroke-linecap="round" stroke-linejoin="round"/>
</svg> 