<svg xmlns="http://www.w3.org/2000/svg" width="23" height="23" viewBox="0 0 23 23" fill="none">
  <path d="M19.4906 19.5424L14.029 14.0809M15.8495 9.5296C15.8495 10.3664 15.6847 11.1949 15.3645 11.968C15.0443 12.741 14.575 13.4435 13.9833 14.0351C13.3916 14.6268 12.6892 15.0962 11.9161 15.4164C11.1431 15.7366 10.3145 15.9014 9.47775 15.9014C8.641 15.9014 7.81243 15.7366 7.03937 15.4164C6.26631 15.0962 5.56389 14.6268 4.97221 14.0351C4.38054 13.4435 3.91119 12.741 3.59098 11.968C3.27077 11.1949 3.10596 10.3664 3.10596 9.5296C3.10596 7.8397 3.77727 6.21901 4.97221 5.02406C6.16716 3.82912 7.78785 3.15781 9.47775 3.15781C11.1677 3.15781 12.7883 3.82912 13.9833 5.02406C15.1782 6.21901 15.8495 7.8397 15.8495 9.5296Z" stroke="#0DE26D" stroke-width="1.82051" stroke-linecap="round" stroke-linejoin="round"/>
</svg> 