<svg xmlns="http://www.w3.org/2000/svg" width="22" height="21" viewBox="0 0 22 21" fill="none">
  <path d="M9.63587 4.39559C9.99422 2.91845 12.0955 2.91845 12.4539 4.39559C12.5076 4.6175 12.613 4.82357 12.7615 4.99704C12.91 5.17051 13.0973 5.30648 13.3082 5.39387C13.5192 5.48127 13.7478 5.51762 13.9754 5.49997C14.2031 5.48232 14.4233 5.41117 14.6183 5.2923C15.9162 4.50158 17.4026 5.98713 16.6119 7.28593C16.4932 7.4808 16.4222 7.70093 16.4046 7.92842C16.387 8.15591 16.4233 8.38434 16.5106 8.59515C16.5979 8.80597 16.7337 8.99321 16.9069 9.14165C17.0802 9.2901 17.2861 9.39557 17.5078 9.44949C18.9849 9.80784 18.9849 11.9091 17.5078 12.2675C17.2859 12.3213 17.0798 12.4267 16.9063 12.5751C16.7329 12.7236 16.5969 12.9109 16.5095 13.1219C16.4221 13.3328 16.3857 13.5614 16.4034 13.789C16.421 14.0167 16.4922 14.2369 16.6111 14.4319C17.4018 15.7298 15.9162 17.2162 14.6174 16.4255C14.4226 16.3068 14.2024 16.2358 13.9749 16.2182C13.7475 16.2006 13.519 16.2369 13.3082 16.3242C13.0974 16.4115 12.9102 16.5473 12.7617 16.7205C12.6133 16.8938 12.5078 17.0997 12.4539 17.3214C12.0955 18.7985 9.99422 18.7985 9.63587 17.3214C9.58211 17.0995 9.4767 16.8934 9.32824 16.7199C9.17978 16.5465 8.99245 16.4105 8.78151 16.3231C8.57057 16.2357 8.34198 16.1994 8.11433 16.217C7.88669 16.2347 7.66643 16.3058 7.47148 16.4247C6.17352 17.2154 4.68712 15.7298 5.47785 14.431C5.59654 14.2362 5.66758 14.0161 5.68519 13.7886C5.7028 13.5611 5.66648 13.3326 5.57919 13.1218C5.4919 12.911 5.35609 12.7238 5.18282 12.5753C5.00954 12.4269 4.80368 12.3214 4.58197 12.2675C3.10484 11.9091 3.10484 9.80784 4.58197 9.44949C4.80388 9.39572 5.00996 9.29032 5.18343 9.14185C5.3569 8.99339 5.49287 8.80607 5.58026 8.59513C5.66765 8.38419 5.704 8.15559 5.68635 7.92795C5.6687 7.7003 5.59755 7.48004 5.47869 7.28509C4.68797 5.98713 6.17352 4.50074 7.47232 5.29146C8.31015 5.80291 9.4037 5.35034 9.63587 4.39559Z" stroke="#0DE26D" stroke-width="1.68239" stroke-linecap="round" stroke-linejoin="round"/>
  <path d="M13.5687 10.8585C13.5687 11.5278 13.3028 12.1697 12.8295 12.6429C12.3562 13.1162 11.7144 13.3821 11.0451 13.3821C10.3758 13.3821 9.73389 13.1162 9.26062 12.6429C8.78736 12.1697 8.52148 11.5278 8.52148 10.8585C8.52148 10.1892 8.78736 9.54731 9.26062 9.07405C9.73389 8.60078 10.3758 8.33491 11.0451 8.33491C11.7144 8.33491 12.3562 8.60078 12.8295 9.07405C13.3028 9.54731 13.5687 10.1892 13.5687 10.8585Z" stroke="#0DE26D" stroke-width="1.68239" stroke-linecap="round" stroke-linejoin="round"/>
</svg>