<?xml version="1.0" encoding="UTF-8"?>
<svg width="29" height="29" viewBox="0 0 29 29" fill="none" xmlns="http://www.w3.org/2000/svg">
<path fill-rule="evenodd" clip-rule="evenodd" d="M11.89 4.46256C12.9916 2.50416 15.8096 2.50416 16.9098 4.46256L24.945 18.7474C26.025 20.6683 24.6383 23.0386 22.4365 23.0386H6.36468C4.16148 23.0386 2.77476 20.6683 3.85476 18.7474L11.89 4.46256ZM15.8399 18.72C15.8399 19.1019 15.6882 19.4682 15.4181 19.7382C15.1481 20.0083 14.7818 20.16 14.3999 20.16C14.018 20.16 13.6517 20.0083 13.3816 19.7382C13.1116 19.4682 12.9599 19.1019 12.9599 18.72C12.9599 18.3381 13.1116 17.9718 13.3816 17.7018C13.6517 17.4317 14.018 17.28 14.3999 17.28C14.7818 17.28 15.1481 17.4317 15.4181 17.7018C15.6882 17.9718 15.8399 18.3381 15.8399 18.72ZM14.3999 7.2C14.018 7.2 13.6517 7.35172 13.3816 7.62177C13.1116 7.89182 12.9599 8.25809 12.9599 8.64V12.96C12.9599 13.3419 13.1116 13.7082 13.3816 13.9782C13.6517 14.2483 14.018 14.4 14.3999 14.4C14.7818 14.4 15.1481 14.2483 15.4181 13.9782C15.6882 13.7082 15.8399 13.3419 15.8399 12.96V8.64C15.8399 8.25809 15.6882 7.89182 15.4181 7.62177C15.1481 7.35172 14.7818 7.2 14.3999 7.2Z" fill="#EF4444"/>
</svg> 